{
  "accessors": [
    {
      "bufferView": 0,
      "componentType": 5126,
      "count": 4,
      "max": [
        8.0,
        8.0,
        0.0
      ],
      "min": [
        -8.0,
        -8.0,
        0.0
      ],
      "type": "VEC3"
    },
    {
      "bufferView": 1,
      "componentType": 5126,
      "count": 4,
      "type": "VEC3"
    },
    {
      "bufferView": 2,
      "componentType": 5126,
      "count": 4,
      "type": "VEC2"
    },
    {
      "bufferView": 3,
      "componentType": 5126,
      "count": 4,
      "type": "VEC4"
    },
    {
      "bufferView": 4,
      "componentType": 5125,
      "count": 6,
      "type": "SCALAR"
    },
    {
      "bufferView": 5,
      "componentType": 5126,
      "count": 36,
      "max": [
        1.0,
        1.0,
        1.0000009536743164
      ],
      "min": [
        -1.0,
        -1.0,
        -1.0
      ],
      "type": "VEC3"
    },
    {
      "bufferView": 6,
      "componentType": 5126,
      "count": 36,
      "type": "VEC3"
    },
    {
      "bufferView": 7,
      "componentType": 5126,
      "count": 36,
      "type": "VEC2"
    },
    {
      "bufferView": 8,
      "componentType": 5126,
      "count": 36,
      "type": "VEC4"
    },
    {
      "bufferView": 9,
      "componentType": 5125,
      "count": 36,
      "type": "SCALAR"
    }
  ],
  "asset": {
    "generator": "SauceEngine GLTFExporter",
    "version": "2.0"
  },
  "bufferViews": [
    {
      "buffer": 0,
      "byteLength": 48,
      "target": 34962
    },
    {
      "buffer": 0,
      "byteLength": 48,
      "byteOffset": 48,
      "target": 34962
    },
    {
      "buffer": 0,
      "byteLength": 32,
      "byteOffset": 96,
      "target": 34962
    },
    {
      "buffer": 0,
      "byteLength": 64,
      "byteOffset": 128,
      "target": 34962
    },
    {
      "buffer": 0,
      "byteLength": 24,
      "byteOffset": 192,
      "target": 34963
    },
    {
      "buffer": 0,
      "byteLength": 432,
      "byteOffset": 216,
      "target": 34962
    },
    {
      "buffer": 0,
      "byteLength": 432,
      "byteOffset": 648,
      "target": 34962
    },
    {
      "buffer": 0,
      "byteLength": 288,
      "byteOffset": 1080,
      "target": 34962
    },
    {
      "buffer": 0,
      "byteLength": 576,
      "byteOffset": 1368,
      "target": 34962
    },
    {
      "buffer": 0,
      "byteLength": 144,
      "byteOffset": 1944,
      "target": 34963
    }
  ],
  "buffers": [
    {
      "byteLength": 2088,
      "uri": "data:application/octet-stream;base64,"
    }
  ],
  "images": [
    {
      "uri": "textures2/wood_table_001_diff_2k.png"
    },
    {
      "uri": "textures2/wood_table_001_rough_2k.png"
    },
    {
      "uri": "textures2/wood_table_001_nor_gl_2k.png"
    },
    {
      "uri": "textures2/wood_table_001_diff_2k.png"
    },
    {
      "uri": "textures2/wood_table_001_rough_2k.png"
    },
    {
      "uri": "textures2/wood_table_001_nor_gl_2k.png"
    }
  ],
  "materials": [
    {
      "name": "JengaTableWood",
      "normalTexture": {
        "index": 2,
        "scale": 0.800000011920929
      },
      "pbrMetallicRoughness": {
        "baseColorFactor": [
          0.7400000095367432,
          0.5799999833106995,
          0.4300000071525574,
          1.0
        ],
        "baseColorTexture": {
          "index": 0
        },
        "metallicFactor": 0.019999999552965164,
        "metallicRoughnessTexture": {
          "index": 1
        },
        "roughnessFactor": 0.7599999904632568
      }
    },
    {
      "name": "JengaBlockWood",
      "normalTexture": {
        "index": 5,
        "scale": 0.800000011920929
      },
      "pbrMetallicRoughness": {
        "baseColorFactor": [
          1.0800000429153442,
          0.8799999952316284,
          0.6600000262260437,
          1.0
        ],
        "baseColorTexture": {
          "index": 3
        },
        "metallicFactor": 0.029999999329447746,
        "metallicRoughnessTexture": {
          "index": 4
        },
        "roughnessFactor": 0.8199999928474426
      }
    }
  ],
  "meshes": [
    {
      "name": "Table",
      "primitives": [
        {
          "attributes": {
            "NORMAL": 1,
            "POSITION": 0,
            "TANGENT": 3,
            "TEXCOORD_0": 2
          },
          "indices": 4,
          "material": 0,
          "mode": 4
        }
      ]
    },
    {
      "name": "JengaBlock_0",
      "primitives": [
        {
          "attributes": {
            "NORMAL": 6,
            "POSITION": 5,
            "TANGENT": 8,
            "TEXCOORD_0": 7
          },
          "indices": 9,
          "material": 1,
          "mode": 4
        }
      ]
    }
  ],
  "nodes": [
    {
      "mesh": 0,
      "name": "Table"
    },
    {
      "mesh": 1,
      "name": "JengaBlock_0",
      "scale": [
        1.5,
        0.5,
        0.30000001192092896
      ],
      "translation": [
        0.0,
        -1.0299999713897705,
        0.30000001192092896
      ]
    },
    {
      "mesh": 1,
      "name": "JengaBlock_1",
      "scale": [
        1.5,
        0.5,
        0.30000001192092896
      ],
      "translation": [
        0.0,
        0.0,
        0.30000001192092896
      ]
    },
    {
      "mesh": 1,
      "name": "JengaBlock_2",
      "scale": [
        1.5,
        0.5,
        0.30000001192092896
      ],
      "translation": [
        0.0,
        1.0299999713897705,
        0.30000001192092896
      ]
    },
    {
      "mesh": 1,
      "name": "JengaBlock_3",
      "rotation": [
        0.0,
        0.0,
        0.7071067690849304,
        0.7071067690849304
      ],
      "scale": [
        1.5,
        0.5,
        0.30000001192092896
      ],
      "translation": [
        -1.0299999713897705,
        0.0,
        0.9000000357627869
      ]
    },
    {
      "mesh": 1,
      "name": "JengaBlock_4",
      "rotation": [
        0.0,
        0.0,
        0.7071067690849304,
        0.7071067690849304
      ],
      "scale": [
        1.5,
        0.5,
        0.30000001192092896
      ],
      "translation": [
        0.0,
        0.0,
        0.9000000357627869
      ]
    },
    {
      "mesh": 1,
      "name": "JengaBlock_5",
      "rotation": [
        0.0,
        0.0,
        0.7071067690849304,
        0.7071067690849304
      ],
      "scale": [
        1.5,
        0.5,
        0.30000001192092896
      ],
      "translation": [
        1.0299999713897705,
        0.0,
        0.9000000357627869
      ]
    },
    {
      "mesh": 1,
      "name": "JengaBlock_6",
      "scale": [
        1.5,
        0.5,
        0.30000001192092896
      ],
      "translation": [
        0.0,
        -1.0299999713897705,
        1.5
      ]
    },
    {
      "mesh": 1,
      "name": "JengaBlock_7",
      "scale": [
        1.5,
        0.5,
        0.30000001192092896
      ],
      "translation": [
        0.0,
        0.0,
        1.5
      ]
    },
    {
      "mesh": 1,
      "name": "JengaBlock_8",
      "scale": [
        1.5,
        0.5,
        0.30000001192092896
      ],
      "translation": [
        0.0,
        1.0299999713897705,
        1.5
      ]
    },
    {
      "mesh": 1,
      "name": "JengaBlock_9",
      "rotation": [
        0.0,
        0.0,
        0.7071067690849304,
        0.7071067690849304
      ],
      "scale": [
        1.5,
        0.5,
        0.30000001192092896
      ],
      "translation": [
        -1.0299999713897705,
        0.0,
        2.1000001430511475
      ]
    },
    {
      "mesh": 1,
      "name": "JengaBlock_10",
      "rotation": [
        0.0,
        0.0,
        0.7071067690849304,
        0.7071067690849304
      ],
      "scale": [
        1.5,
        0.5,
        0.30000001192092896
      ],
      "translation": [
        0.0,
        0.0,
        2.1000001430511475
      ]
    },
    {
      "mesh": 1,
      "name": "JengaBlock_11",
      "rotation": [
        0.0,
        0.0,
        0.7071067690849304,
        0.7071067690849304
      ],
      "scale": [
        1.5,
        0.5,
        0.30000001192092896
      ],
      "translation": [
        1.0299999713897705,
        0.0,
        2.1000001430511475
      ]
    },
    {
      "mesh": 1,
      "name": "JengaBlock_12",
      "scale": [
        1.5,
        0.5,
        0.30000001192092896
      ],
      "translation": [
        0.0,
        -1.0299999713897705,
        2.700000047683716
      ]
    },
    {
      "mesh": 1,
      "name": "JengaBlock_13",
      "scale": [
        1.5,
        0.5,
        0.30000001192092896
      ],
      "translation": [
        0.0,
        0.0,
        2.700000047683716
      ]
    },
    {
      "mesh": 1,
      "name": "JengaBlock_14",
      "scale": [
        1.5,
        0.5,
        0.30000001192092896
      ],
      "translation": [
        0.0,
        1.0299999713897705,
        2.700000047683716
      ]
    },
    {
      "mesh": 1,
      "name": "JengaBlock_15",
      "rotation": [
        0.0,
        0.0,
        0.7071067690849304,
        0.7071067690849304
      ],
      "scale": [
        1.5,
        0.5,
        0.30000001192092896
      ],
      "translation": [
        -1.0299999713897705,
        0.0,
        3.3000001907348633
      ]
    },
    {
      "mesh": 1,
      "name": "JengaBlock_16",
      "rotation": [
        0.0,
        0.0,
        0.7071067690849304,
        0.7071067690849304
      ],
      "scale": [
        1.5,
        0.5,
        0.30000001192092896
      ],
      "translation": [
        0.0,
        0.0,
        3.3000001907348633
      ]
    },
    {
      "mesh": 1,
      "name": "JengaBlock_17",
      "rotation": [
        0.0,
        0.0,
        0.7071067690849304,
        0.7071067690849304
      ],
      "scale": [
        1.5,
        0.5,
        0.30000001192092896
      ],
      "translation": [
        1.0299999713897705,
        0.0,
        3.3000001907348633
      ]
    },
    {
      "mesh": 1,
      "name": "JengaBlock_18",
      "scale": [
        1.5,
        0.5,
        0.30000001192092896
      ],
      "translation": [
        0.0,
        -1.0299999713897705,
        3.9000000953674316
      ]
    },
    {
      "mesh": 1,
      "name": "JengaBlock_19",
      "scale": [
        1.5,
        0.5,
        0.30000001192092896
      ],
      "translation": [
        0.0,
        0.0,
        3.9000000953674316
      ]
    },
    {
      "mesh": 1,
      "name": "JengaBlock_20",
      "scale": [
        1.5,
        0.5,
        0.30000001192092896
      ],
      "translation": [
        0.0,
        1.0299999713897705,
        3.9000000953674316
      ]
    },
    {
      "mesh": 1,
      "name": "JengaBlock_21",
      "rotation": [
        0.0,
        0.0,
        0.7071067690849304,
        0.7071067690849304
      ],
      "scale": [
        1.5,
        0.5,
        0.30000001192092896
      ],
      "translation": [
        -1.0299999713897705,
        0.0,
        4.5
      ]
    },
    {
      "mesh": 1,
      "name": "JengaBlock_22",
      "rotation": [
        0.0,
        0.0,
        0.7071067690849304,
        0.7071067690849304
      ],
      "scale": [
        1.5,
        0.5,
        0.30000001192092896
      ],
      "translation": [
        0.0,
        0.0,
        4.5
      ]
    },
    {
      "mesh": 1,
      "name": "JengaBlock_23",
      "rotation": [
        0.0,
        0.0,
        0.7071067690849304,
        0.7071067690849304
      ],
      "scale": [
        1.5,
        0.5,
        0.30000001192092896
      ],
      "translation": [
        1.0299999713897705,
        0.0,
        4.5
      ]
    }
  ],
  "scene": 0,
  "scenes": [
    {
      "name": "Scene",
      "nodes": [
        0,
        1,
        2,
        3,
        4,
        5,
        6,
        7,
        8,
        9,
        10,
        11,
        12,
        13,
        14,
        15,
        16,
        17,
        18,
        19,
        20,
        21,
        22,
        23,
        24
      ]
    }
  ],
  "textures": [
    {
      "source": 0
    },
    {
      "source": 1
    },
    {
      "source": 2
    },
    {
      "source": 3
    },
    {
      "source": 4
    },
    {
      "source": 5
    }
  ]
}
