{
  "asset": {
    "generator": "Codex course assembly",
    "version": "2.0"
  },
  "extensionsUsed": [
    "KHR_lights_punctual"
  ],
  "extensionsRequired": [
    "KHR_lights_punctual"
  ],
  "extensions": {
    "KHR_lights_punctual": {
      "lights": [
        {
          "name": "Sun",
          "type": "directional",
          "color": [
            1.0,
            0.97,
            0.93
          ],
          "intensity": 0.8
        },
        {
          "name": "WarmKey",
          "type": "point",
          "color": [
            1.0,
            0.93,
            0.82
          ],
          "intensity": 16.0,
          "range": 24.0
        },
        {
          "name": "CoolFill",
          "type": "point",
          "color": [
            0.67,
            0.8,
            1.0
          ],
          "intensity": 10.0,
          "range": 20.0
        },
        {
          "name": "GoalPop",
          "type": "point",
          "color": [
            0.78,
            1.0,
            0.72
          ],
          "intensity": 14.0,
          "range": 8.0
        }
      ]
    }
  },
  "scene": 0,
  "scenes": [
    {
      "name": "MonkeyBallCourseScene",
      "nodes": [
        0
      ]
    }
  ],
  "nodes": [
    {
      "name": "MonkeyBallCourse",
      "children": [
        1,
        4,
        5,
        6,
        7,
        8,
        9,
        10,
        11,
        12,
        13,
        14,
        15
      ]
    },
    {
      "name": "MonkeyBallRig",
      "translation": [
        -8.0,
        -2.0,
        0.52
      ],
      "scale": [
        0.42,
        0.42,
        0.42
      ],
      "children": [
        2,
        3
      ]
    },
    {
      "name": "SuzanneCore",
      "mesh": 0,
      "translation": [
        0.0,
        -0.05,
        0.0
      ],
      "rotation": [
        0.0,
        0.3826834324,
        0.0,
        0.9238795325
      ],
      "scale": [
        0.62,
        0.62,
        0.62
      ]
    },
    {
      "name": "SphereShell",
      "mesh": 1,
      "scale": [
        1.08,
        1.08,
        1.08
      ]
    },
    {
      "name": "TableBase",
      "mesh": 4,
      "translation": [
        0.3,
        1.4,
        -0.16
      ],
      "scale": [
        1.24,
        0.84,
        1.0
      ]
    },
    {
      "name": "StartPad",
      "mesh": 2,
      "translation": [
        -8.0,
        -2.0,
        0.09
      ],
      "scale": [
        0.24,
        0.24,
        1.0
      ]
    },
    {
      "name": "StraightA",
      "mesh": 2,
      "translation": [
        -4.3,
        -1.3,
        0.09
      ],
      "rotation": [
        0.0,
        0.0,
        0.0599640065,
        0.9982005399
      ],
      "scale": [
        0.34,
        0.12,
        1.0
      ]
    },
    {
      "name": "CornerPad",
      "mesh": 2,
      "translation": [
        0.1,
        0.4,
        0.09
      ],
      "rotation": [
        0.0,
        0.0,
        0.188858895,
        0.9820042351
      ],
      "scale": [
        0.22,
        0.22,
        1.0
      ]
    },
    {
      "name": "StraightB",
      "mesh": 2,
      "translation": [
        4.2,
        2.9,
        0.09
      ],
      "rotation": [
        0.0,
        0.0,
        0.188858895,
        0.9820042351
      ],
      "scale": [
        0.34,
        0.11,
        1.0
      ]
    },
    {
      "name": "GoalPad",
      "mesh": 2,
      "translation": [
        8.4,
        5.1,
        0.09
      ],
      "scale": [
        0.22,
        0.22,
        1.0
      ]
    },
    {
      "name": "SideIsland",
      "mesh": 2,
      "translation": [
        2.5,
        -3.2,
        0.09
      ],
      "scale": [
        0.12,
        0.12,
        1.0
      ]
    },
    {
      "name": "GoalRing",
      "mesh": 3,
      "translation": [
        8.9,
        5.7,
        1.25
      ],
      "rotation": [
        0.7071067812,
        0.0,
        0.0,
        0.7071067812
      ],
      "scale": [
        0.4,
        0.4,
        0.4
      ]
    },
    {
      "name": "Sun",
      "extensions": {
        "KHR_lights_punctual": {
          "light": 0
        }
      }
    },
    {
      "name": "WarmKey",
      "translation": [
        -4.5,
        -5.5,
        6.0
      ],
      "extensions": {
        "KHR_lights_punctual": {
          "light": 1
        }
      }
    },
    {
      "name": "CoolFill",
      "translation": [
        4.5,
        1.5,
        5.2
      ],
      "extensions": {
        "KHR_lights_punctual": {
          "light": 2
        }
      }
    },
    {
      "name": "GoalPop",
      "translation": [
        9.0,
        5.8,
        2.4
      ],
      "extensions": {
        "KHR_lights_punctual": {
          "light": 3
        }
      }
    }
  ],
  "materials": [
    {
      "name": "MonkeyBrown",
      "pbrMetallicRoughness": {
        "baseColorFactor": [
          0.42,
          0.26,
          0.14,
          1.0
        ],
        "metallicFactor": 0.02,
        "roughnessFactor": 0.92
      }
    },
    {
      "name": "BallGlass",
      "pbrMetallicRoughness": {
        "baseColorFactor": [
          0.84,
          0.93,
          1.0,
          0.12
        ],
        "metallicFactor": 0.0,
        "roughnessFactor": 0.08
      },
      "emissiveFactor": [
        0.02,
        0.05,
        0.08
      ],
      "alphaMode": "BLEND",
      "doubleSided": true
    },
    {
      "name": "CourseFelt",
      "doubleSided": true,
      "pbrMetallicRoughness": {
        "baseColorTexture": {
          "index": 1
        },
        "baseColorFactor": [
          0.14,
          0.82,
          0.16,
          1.0
        ],
        "metallicFactor": 0.0,
        "metallicRoughnessTexture": {
          "index": 2
        },
        "roughnessFactor": 0.96
      },
      "emissiveFactor": [
        0.01,
        0.05,
        0.01
      ]
    },
    {
      "name": "GoalRing",
      "pbrMetallicRoughness": {
        "baseColorFactor": [
          1.0,
          0.84,
          0.22,
          1.0
        ],
        "metallicFactor": 0.0,
        "roughnessFactor": 0.28
      },
      "emissiveFactor": [
        0.45,
        0.3,
        0.08
      ]
    },
    {
      "name": "TableBase",
      "doubleSided": true,
      "pbrMetallicRoughness": {
        "baseColorTexture": {
          "index": 1
        },
        "baseColorFactor": [
          0.05,
          0.34,
          0.08,
          1.0
        ],
        "metallicFactor": 0.0,
        "metallicRoughnessTexture": {
          "index": 2
        },
        "roughnessFactor": 0.98
      },
      "emissiveFactor": [
        0.0,
        0.02,
        0.0
      ]
    }
  ],
  "meshes": [
    {
      "name": "Suzanne",
      "primitives": [
        {
          "attributes": {
            "POSITION": 0,
            "NORMAL": 1,
            "TEXCOORD_0": 2
          },
          "indices": 3,
          "material": 0,
          "mode": 4
        }
      ]
    },
    {
      "name": "Ball",
      "primitives": [
        {
          "attributes": {
            "POSITION": 4,
            "NORMAL": 6,
            "TEXCOORD_0": 7
          },
          "indices": 5,
          "material": 1,
          "mode": 4
        }
      ]
    },
    {
      "name": "CoursePlane",
      "primitives": [
        {
          "attributes": {
            "POSITION": 13,
            "NORMAL": 14,
            "TEXCOORD_0": 15,
            "TANGENT": 16
          },
          "indices": 17,
          "material": 2,
          "mode": 4
        }
      ]
    },
    {
      "name": "GoalRing",
      "primitives": [
        {
          "attributes": {
            "POSITION": 8,
            "NORMAL": 9,
            "TEXCOORD_0": 10,
            "TANGENT": 11
          },
          "indices": 12,
          "material": 3,
          "mode": 4
        }
      ]
    },
    {
      "name": "BasePlane",
      "primitives": [
        {
          "attributes": {
            "POSITION": 13,
            "NORMAL": 14,
            "TEXCOORD_0": 15,
            "TANGENT": 16
          },
          "indices": 17,
          "material": 4,
          "mode": 4
        }
      ]
    }
  ],
  "samplers": [
    {
      "magFilter": 9729,
      "minFilter": 9987
    }
  ],
  "textures": [
    {
      "sampler": 0,
      "source": 0
    },
    {
      "sampler": 0,
      "source": 1
    },
    {
      "sampler": 0,
      "source": 2
    }
  ],
  "images": [
    {
      "mimeType": "image/png",
      "name": "wood_table_001_nor_gl_2k",
      "uri": "textures2/wood_table_001_nor_gl_2k.png"
    },
    {
      "mimeType": "image/png",
      "name": "wood_table_001_diff_2k",
      "uri": "textures2/wood_table_001_diff_2k.png"
    },
    {
      "mimeType": "image/png",
      "name": "wood_table_001_rough_2k",
      "uri": "textures2/wood_table_001_rough_2k.png"
    }
  ],
  "accessors": [
    {
      "bufferView": 0,
      "componentType": 5126,
      "count": 1966,
      "max": [
        1.3671875,
        0.984375,
        0.8515625
      ],
      "min": [
        -1.3671875,
        -0.984375,
        -0.8515625
      ],
      "type": "VEC3"
    },
    {
      "bufferView": 1,
      "componentType": 5126,
      "count": 1966,
      "type": "VEC3"
    },
    {
      "bufferView": 2,
      "componentType": 5126,
      "count": 1966,
      "type": "VEC2"
    },
    {
      "bufferView": 3,
      "componentType": 5123,
      "count": 2904,
      "type": "SCALAR"
    },
    {
      "bufferView": 4,
      "type": "VEC3",
      "componentType": 5126,
      "count": 24895,
      "min": [
        -1.0,
        -1.0,
        -1.0
      ],
      "max": [
        1.0,
        1.0,
        1.0
      ]
    },
    {
      "bufferView": 5,
      "type": "SCALAR",
      "componentType": 5125,
      "count": 146304
    },
    {
      "bufferView": 6,
      "type": "VEC3",
      "componentType": 5126,
      "count": 24895
    },
    {
      "bufferView": 7,
      "type": "VEC2",
      "componentType": 5126,
      "count": 24895
    },
    {
      "bufferView": 8,
      "componentType": 5126,
      "count": 637,
      "max": [
        1.25,
        1.25,
        0.25
      ],
      "min": [
        -1.25,
        -1.25,
        -0.25
      ],
      "type": "VEC3"
    },
    {
      "bufferView": 9,
      "componentType": 5126,
      "count": 637,
      "type": "VEC3"
    },
    {
      "bufferView": 10,
      "componentType": 5126,
      "count": 637,
      "type": "VEC2"
    },
    {
      "bufferView": 11,
      "componentType": 5126,
      "count": 637,
      "type": "VEC4"
    },
    {
      "bufferView": 12,
      "componentType": 5123,
      "count": 3456,
      "type": "SCALAR"
    },
    {
      "bufferView": 13,
      "componentType": 5126,
      "count": 4,
      "max": [
        10.0,
        10.0,
        0.0
      ],
      "min": [
        -10.0,
        -10.0,
        0.0
      ],
      "type": "VEC3"
    },
    {
      "bufferView": 14,
      "componentType": 5126,
      "count": 4,
      "type": "VEC3"
    },
    {
      "bufferView": 15,
      "componentType": 5126,
      "count": 4,
      "type": "VEC2"
    },
    {
      "bufferView": 16,
      "componentType": 5126,
      "count": 4,
      "type": "VEC4"
    },
    {
      "bufferView": 17,
      "componentType": 5123,
      "count": 6,
      "type": "SCALAR"
    }
  ],
  "bufferViews": [
    {
      "buffer": 0,
      "byteLength": 23592,
      "byteOffset": 0,
      "target": 34962
    },
    {
      "buffer": 0,
      "byteLength": 23592,
      "byteOffset": 23592,
      "target": 34962
    },
    {
      "buffer": 0,
      "byteLength": 15728,
      "byteOffset": 47184,
      "target": 34962
    },
    {
      "buffer": 0,
      "byteLength": 5808,
      "byteOffset": 62912,
      "target": 34963
    },
    {
      "buffer": 1,
      "byteLength": 298740
    },
    {
      "buffer": 1,
      "byteLength": 585216,
      "byteOffset": 298740
    },
    {
      "buffer": 1,
      "byteLength": 298740,
      "byteOffset": 883956
    },
    {
      "buffer": 1,
      "byteLength": 199160,
      "byteOffset": 1182696
    },
    {
      "buffer": 2,
      "byteLength": 7644,
      "byteOffset": 187296,
      "target": 34962
    },
    {
      "buffer": 2,
      "byteLength": 7644,
      "byteOffset": 194940,
      "target": 34962
    },
    {
      "buffer": 2,
      "byteLength": 5096,
      "byteOffset": 202584,
      "target": 34962
    },
    {
      "buffer": 2,
      "byteLength": 10192,
      "byteOffset": 207680,
      "target": 34962
    },
    {
      "buffer": 2,
      "byteLength": 6912,
      "byteOffset": 217872,
      "target": 34963
    },
    {
      "buffer": 2,
      "byteLength": 48,
      "byteOffset": 224784,
      "target": 34962
    },
    {
      "buffer": 2,
      "byteLength": 48,
      "byteOffset": 224832,
      "target": 34962
    },
    {
      "buffer": 2,
      "byteLength": 32,
      "byteOffset": 224880,
      "target": 34962
    },
    {
      "buffer": 2,
      "byteLength": 64,
      "byteOffset": 224912,
      "target": 34962
    },
    {
      "buffer": 2,
      "byteLength": 12,
      "byteOffset": 224976,
      "target": 34963
    }
  ],
  "buffers": [
    {
      "byteLength": 68720,
      "uri": "../assets/models/monkey.bin"
    },
    {
      "byteLength": 1381856,
      "uri": "../assets/models/sphere.bin"
    },
    {
      "byteLength": 224988,
      "uri": "testScene.bin"
    }
  ]
}
