{
	"asset":{
		"generator":"Khronos glTF Blender I/O v5.1.18",
		"version":"2.0"
	},
	"extensionsUsed":[
		"KHR_lights_punctual"
	],
	"extensionsRequired":[
		"KHR_lights_punctual"
	],
	"extensions":{
		"KHR_lights_punctual":{
			"lights":[
				{
					"color":[
						1,
						0,
						0.012516000308096409
					],
					"intensity":0.7957747154594768,
					"type":"point",
					"name":"Point"
				},
				{
					"color":[
						0,
						0.30018600821495056,
						1
					],
					"intensity":19.098593171027442,
					"spot":{
						"innerConeAngle":0.18376930533054292,
						"outerConeAngle":0.27225959300994873
					},
					"type":"spot",
					"name":"Spot"
				},
				{
					"color":[
						0.9979680180549622,
						0,
						1
					],
					"intensity":0.7957747154594768,
					"type":"point",
					"name":"Point.001"
				},
				{
					"color":[
						0.008028999902307987,
						1,
						0
					],
					"intensity":0.7957747154594768,
					"type":"point",
					"name":"Point.002"
				},
				{
					"color":[
						1,
						0.8357840180397034,
						0
					],
					"intensity":1.5915494309189535,
					"spot":{
						"innerConeAngle":0.48628364640599164,
						"outerConeAngle":0.505482017993927
					},
					"type":"spot",
					"name":"Spot.001"
				}
			]
		}
	},
	"scene":0,
	"scenes":[
		{
			"name":"Scene",
			"nodes":[
				0,
				1,
				2,
				3,
				4,
				5,
				6,
				7,
				8
			]
		}
	],
	"nodes":[
		{
			"mesh":0,
			"name":"Suzanne"
		},
		{
			"mesh":1,
			"name":"Torus",
			"translation":[
				0,
				0,
				1.4793519973754883
			]
		},
		{
			"extensions":{
				"KHR_lights_punctual":{
					"light":0
				}
			},
			"name":"Point",
			"translation":[
				0,
				0,
				2.412551164627075
			]
		},
		{
			"camera":0,
			"name":"Camera",
			"rotation":[
				0.5973813533782959,
				0.24481923878192902,
				0.28959453105926514,
				0.7066357731819153
			],
			"translation":[
				6.977078914642334,
				-7.082672595977783,
				1.9633227586746216
			]
		},
		{
			"extensions":{
				"KHR_lights_punctual":{
					"light":1
				}
			},
			"name":"Spot",
			"rotation":[
				0.7933534979820251,
				0,
				0,
				0.6087613701820374
			],
			"scale":[
				0.28009575605392456,
				0.28009575605392456,
				0.28009575605392456
			],
			"translation":[
				0,
				-4.274655342102051,
				0
			]
		},
		{
			"extensions":{
				"KHR_lights_punctual":{
					"light":2
				}
			},
			"name":"Point.001",
			"translation":[
				1.3558759689331055,
				0,
				0
			]
		},
		{
			"extensions":{
				"KHR_lights_punctual":{
					"light":3
				}
			},
			"name":"Point.002",
			"translation":[
				-1.519905924797058,
				0,
				0
			]
		},
		{
			"mesh":2,
			"name":"Plane",
			"translation":[
				0,
				0,
				-0.9674636125564575
			]
		},
		{
			"extensions":{
				"KHR_lights_punctual":{
					"light":4
				}
			},
			"name":"Spot.001",
			"scale":[
				0.10716992616653442,
				0.10716992616653442,
				0.10716992616653442
			],
			"translation":[
				0,
				2.8893871307373047,
				1.0622247457504272
			]
		}
	],
	"cameras":[
		{
			"name":"Camera",
			"perspective":{
				"aspectRatio":1.7777777777777777,
				"yfov":0.39959652046304894,
				"zfar":1000,
				"znear":0.10000000149011612
			},
			"type":"perspective"
		}
	],
	"materials":[
		{
			"doubleSided":true,
			"name":"Monke",
			"normalTexture":{
				"index":0
			},
			"pbrMetallicRoughness":{
				"baseColorTexture":{
					"index":1
				},
				"metallicRoughnessTexture":{
					"index":2
				}
			}
		},
		{
			"doubleSided":true,
			"name":"Halo",
			"normalTexture":{
				"index":3
			},
			"pbrMetallicRoughness":{
				"baseColorTexture":{
					"index":4
				},
				"metallicFactor":0,
				"metallicRoughnessTexture":{
					"index":5
				}
			}
		},
		{
			"doubleSided":true,
			"name":"Floor",
			"normalTexture":{
				"index":6
			},
			"pbrMetallicRoughness":{
				"baseColorTexture":{
					"index":7
				},
				"metallicFactor":0,
				"metallicRoughnessTexture":{
					"index":8
				}
			}
		}
	],
	"meshes":[
		{
			"name":"Mesh",
			"primitives":[
				{
					"attributes":{
						"POSITION":0,
						"NORMAL":1,
						"TEXCOORD_0":2,
						"TANGENT":3
					},
					"indices":4,
					"material":0
				}
			]
		},
		{
			"name":"Torus",
			"primitives":[
				{
					"attributes":{
						"POSITION":5,
						"NORMAL":6,
						"TEXCOORD_0":7,
						"TANGENT":8
					},
					"indices":9,
					"material":1
				}
			]
		},
		{
			"name":"Plane",
			"primitives":[
				{
					"attributes":{
						"POSITION":10,
						"NORMAL":11,
						"TEXCOORD_0":12,
						"TANGENT":13
					},
					"indices":14,
					"material":2
				}
			]
		}
	],
	"textures":[
		{
			"sampler":0,
			"source":0
		},
		{
			"sampler":0,
			"source":1
		},
		{
			"sampler":0,
			"source":2
		},
		{
			"sampler":0,
			"source":3
		},
		{
			"sampler":0,
			"source":4
		},
		{
			"sampler":0,
			"source":5
		},
		{
			"sampler":0,
			"source":6
		},
		{
			"sampler":0,
			"source":7
		},
		{
			"sampler":0,
			"source":8
		}
	],
	"images":[
		{
			"mimeType":"image/png",
			"name":"Metal053C_4K-PNG_NormalGL",
			"uri":"textures2/Metal053C_4K-PNG_NormalGL.png"
		},
		{
			"mimeType":"image/png",
			"name":"Metal053C_4K-PNG_Color",
			"uri":"textures2/Metal053C_4K-PNG_Color.png"
		},
		{
			"mimeType":"image/png",
			"name":"Metal053C_4K-PNG_Metalness-Metal053C_4K-PNG_Roughness",
			"uri":"textures2/Metal053C_4K-PNG_Metalness-Metal053C_4K-PNG_Roughness.png"
		},
		{
			"mimeType":"image/png",
			"name":"seaside_rock_nor_gl_2k",
			"uri":"textures2/seaside_rock_nor_gl_2k.png"
		},
		{
			"mimeType":"image/jpeg",
			"name":"seaside_rock_diff_2k",
			"uri":"textures2/seaside_rock_diff_2k.jpg"
		},
		{
			"mimeType":"image/png",
			"name":"seaside_rock_rough_2k",
			"uri":"textures2/seaside_rock_rough_2k.png"
		},
		{
			"mimeType":"image/png",
			"name":"wood_table_001_nor_gl_2k",
			"uri":"textures2/wood_table_001_nor_gl_2k.png"
		},
		{
			"mimeType":"image/png",
			"name":"wood_table_001_diff_2k",
			"uri":"textures2/wood_table_001_diff_2k.png"
		},
		{
			"mimeType":"image/png",
			"name":"wood_table_001_rough_2k",
			"uri":"textures2/wood_table_001_rough_2k.png"
		}
	],
	"accessors":[
		{
			"bufferView":0,
			"componentType":5126,
			"count":3410,
			"max":[
				1.325934886932373,
				0.7782661318778992,
				0.9392362236976624
			],
			"min":[
				-1.325934886932373,
				-0.8223199844360352,
				-0.9704862236976624
			],
			"type":"VEC3"
		},
		{
			"bufferView":1,
			"componentType":5126,
			"count":3410,
			"type":"VEC3"
		},
		{
			"bufferView":2,
			"componentType":5126,
			"count":3410,
			"type":"VEC2"
		},
		{
			"bufferView":3,
			"componentType":5126,
			"count":3410,
			"type":"VEC4"
		},
		{
			"bufferView":4,
			"componentType":5123,
			"count":11808,
			"type":"SCALAR"
		},
		{
			"bufferView":5,
			"componentType":5126,
			"count":637,
			"max":[
				1.25,
				1.25,
				0.25
			],
			"min":[
				-1.25,
				-1.25,
				-0.25
			],
			"type":"VEC3"
		},
		{
			"bufferView":6,
			"componentType":5126,
			"count":637,
			"type":"VEC3"
		},
		{
			"bufferView":7,
			"componentType":5126,
			"count":637,
			"type":"VEC2"
		},
		{
			"bufferView":8,
			"componentType":5126,
			"count":637,
			"type":"VEC4"
		},
		{
			"bufferView":9,
			"componentType":5123,
			"count":3456,
			"type":"SCALAR"
		},
		{
			"bufferView":10,
			"componentType":5126,
			"count":4,
			"max":[
				10,
				10,
				0
			],
			"min":[
				-10,
				-10,
				0
			],
			"type":"VEC3"
		},
		{
			"bufferView":11,
			"componentType":5126,
			"count":4,
			"type":"VEC3"
		},
		{
			"bufferView":12,
			"componentType":5126,
			"count":4,
			"type":"VEC2"
		},
		{
			"bufferView":13,
			"componentType":5126,
			"count":4,
			"type":"VEC4"
		},
		{
			"bufferView":14,
			"componentType":5123,
			"count":6,
			"type":"SCALAR"
		}
	],
	"bufferViews":[
		{
			"buffer":0,
			"byteLength":40920,
			"byteOffset":0,
			"target":34962
		},
		{
			"buffer":0,
			"byteLength":40920,
			"byteOffset":40920,
			"target":34962
		},
		{
			"buffer":0,
			"byteLength":27280,
			"byteOffset":81840,
			"target":34962
		},
		{
			"buffer":0,
			"byteLength":54560,
			"byteOffset":109120,
			"target":34962
		},
		{
			"buffer":0,
			"byteLength":23616,
			"byteOffset":163680,
			"target":34963
		},
		{
			"buffer":0,
			"byteLength":7644,
			"byteOffset":187296,
			"target":34962
		},
		{
			"buffer":0,
			"byteLength":7644,
			"byteOffset":194940,
			"target":34962
		},
		{
			"buffer":0,
			"byteLength":5096,
			"byteOffset":202584,
			"target":34962
		},
		{
			"buffer":0,
			"byteLength":10192,
			"byteOffset":207680,
			"target":34962
		},
		{
			"buffer":0,
			"byteLength":6912,
			"byteOffset":217872,
			"target":34963
		},
		{
			"buffer":0,
			"byteLength":48,
			"byteOffset":224784,
			"target":34962
		},
		{
			"buffer":0,
			"byteLength":48,
			"byteOffset":224832,
			"target":34962
		},
		{
			"buffer":0,
			"byteLength":32,
			"byteOffset":224880,
			"target":34962
		},
		{
			"buffer":0,
			"byteLength":64,
			"byteOffset":224912,
			"target":34962
		},
		{
			"buffer":0,
			"byteLength":12,
			"byteOffset":224976,
			"target":34963
		}
	],
	"samplers":[
		{
			"magFilter":9729,
			"minFilter":9987
		}
	],
	"buffers":[
		{
			"byteLength":224988,
			"uri":"testScene.bin"
		}
	]
}
